<svg width="96" height="96" viewBox="0 0 96 96" fill="none" xmlns="http://www.w3.org/2000/svg">
<g clip-path="url(#clip0_1_109)">
<path d="M48 24C52.4183 24 56 20.4183 56 16C56 11.5817 52.4183 8 48 8C43.5817 8 40 11.5817 40 16C40 20.4183 43.5817 24 48 24Z" fill="white"/>
<path d="M76 52V44C69.84 44.08 63.64 41 59.72 36.68L54.56 30.96C53.88 30.2 53.04 29.6 52.12 29.16C52.08 29.16 52.08 29.12 52.04 29.12H52C50.6 28.32 49 27.92 47.24 28.08C43.04 28.44 40 32.16 40 36.36V60C40 64.4 43.6 68 48 68H68V88H76V66C76 61.6 72.4 58 68 58H56V44.2C61.16 48.48 69 51.96 76 52ZM40 80C33.36 80 28 74.64 28 68C28 62.76 31.36 58.36 36 56.68V48.4C26.88 50.24 20 58.32 20 68C20 79.04 28.96 88 40 88C49.68 88 57.76 81.12 59.6 72H51.32C49.68 76.64 45.24 80 40 80Z" fill="white"/>
</g>
<defs>
<clipPath id="clip0_1_109">
<rect width="96" height="96" fill="white"/>
</clipPath>
</defs>
</svg>
