<svg width="118" height="26" viewBox="0 0 118 26" fill="none" xmlns="http://www.w3.org/2000/svg">
<g clip-path="url(#clip0_1_29)">
<path d="M42.2483 19.6701H42.194L38.8785 6.42362H34.9799L31.6782 19.6701H31.6239L28.5539 6.42362H24.4507L29.6137 24.9688H33.4848L36.8954 12.2924H36.9634L40.3733 24.9688H44.2727L49.4219 6.42362H45.3192L42.2483 19.6701ZM91.2527 6.12434C86.3623 6.12434 83.4413 9.28998 83.4413 14.6016V16.8435C83.4413 22.2101 86.349 25.2802 91.2402 25.2802C96.1448 25.2802 98.5896 22.2911 98.5896 18.9493V18.6099H94.9072C94.9072 20.525 93.9559 22.0198 91.3062 22.0198C88.6443 22.0198 87.3395 20.3752 87.3395 16.8435V14.6016C87.3395 11.1103 88.6573 9.35761 91.2795 9.35761C93.7384 9.35761 94.9068 10.988 94.9068 12.8221H98.5887V12.6318C98.5896 9.01825 95.8447 6.12434 91.2527 6.12434V6.12434ZM55.6309 6.42362L49.6527 24.9683H53.4975L54.84 20.2946H60.7064L62.0286 24.9683H66.1455L60.1811 6.42362H55.6309ZM55.6609 17.442L57.7772 10.0776H57.8181L59.9017 17.442H55.6609ZM114.104 6.42362V13.8682H106.524V6.42362H102.679V24.9688H106.524V17.0613H114.104V24.9688H117.963V6.42362H114.104ZM66.0783 9.62975H71.5943V24.9688H75.4258V9.62975H80.9548V6.42362H66.0783V9.62975Z" fill="#0C1014"/>
<path d="M15.3424 6.11179C13.2592 5.95831 11.4927 7.27567 10.507 7.27567C9.50718 7.27567 7.96506 6.145 6.32898 6.17496C4.18224 6.20817 2.20316 7.42348 1.09638 9.34789C-1.13419 13.2198 0.526994 18.9554 2.69925 22.0951C3.76188 23.632 5.02863 25.3608 6.69345 25.2976C8.29632 25.2348 8.90175 24.2601 10.8383 24.2601C12.7737 24.2601 13.32 25.2976 15.0143 25.2648C16.7383 25.2344 17.8313 23.7004 18.8858 22.155C20.1068 20.3744 20.6082 18.6504 20.6381 18.5569C20.5997 18.5435 17.2765 17.2662 17.2433 13.4381C17.2133 10.2384 19.8557 8.69873 19.9764 8.62462C18.476 6.41633 16.1584 6.17253 15.3424 6.11179V6.11179ZM14.0566 4.03754C14.941 2.97004 15.5368 1.47935 15.3727 0C14.0995 0.0494062 12.5598 0.84841 11.647 1.9155C10.829 2.86232 10.1106 4.37731 10.3054 5.82912C11.7256 5.93846 13.1725 5.10747 14.0566 4.03754V4.03754Z" fill="#0C1014"/>
</g>
<defs>
<clipPath id="clip0_1_29">
<rect width="118" height="25.2992" fill="white"/>
</clipPath>
</defs>
</svg>
